<svg width="44" height="44" viewBox="0 0 44 44" fill="none" xmlns="http://www.w3.org/2000/svg">
<path opacity="0.9" d="M35.8399 20.5524C35.493 20.2027 32.8924 18.9927 28.3317 17.055C21.5624 14.1781 18.4373 12.9258 18.0227 12.9258C17.7999 12.9258 17.5178 13.0414 17.3853 13.1853C17.1681 13.4222 17.1794 13.6817 17.5122 16.2596C17.7124 17.8166 17.876 19.0858 17.876 19.1027C17.876 19.2042 14.7058 19.8135 12.706 20.0955C10.7655 20.3663 10.2353 20.4932 10.0632 20.716C9.84322 21.0094 9.8686 22.1827 10.1704 25.6181C10.2437 26.4614 10.2691 27.3386 10.224 27.5812C10.1507 27.9676 10.193 28.0296 10.5568 28.1227C10.7853 28.1791 12.0376 28.1171 13.3407 27.9817C17.2499 27.5783 18.7448 27.5163 18.8153 27.7532C18.8491 27.866 18.9901 29.0281 19.1227 30.3312C19.2948 32.0037 19.433 32.7653 19.5881 32.9232C19.7883 33.1235 19.8278 33.1235 19.9886 32.9148C20.0873 32.785 20.2707 32.706 20.4032 32.7342C20.6881 32.7907 22.8035 31.4114 24.6819 29.9391C27.8973 27.4232 29.9817 25.8917 32.5032 24.2022C33.9558 23.2263 35.3632 22.2278 35.6142 21.9937C36.1501 21.4945 36.2348 20.9473 35.8399 20.5524ZM34.283 21.6355C33.7189 21.9909 33.5835 21.9514 33.6794 21.4578C33.7555 21.0573 34.1419 20.8937 34.5199 21.0996C34.8386 21.2745 34.8301 21.2886 34.283 21.6355ZM32.6922 22.7017C32.6076 22.7017 32.5173 22.6424 32.4637 22.5522C32.413 22.4676 32.4722 22.4055 32.6048 22.4055C32.7373 22.4055 32.8332 22.4676 32.8332 22.5522C32.8332 22.6424 32.7768 22.7017 32.6922 22.7017ZM29.0481 24.3376C28.6053 24.1712 27.2937 23.796 26.1373 23.5083C22.3607 22.5635 19.354 21.5368 19.354 21.1899C19.354 21.1081 19.4499 21.0771 19.5683 21.1222C19.6868 21.1673 20.0337 21.2491 20.3468 21.3055C20.6571 21.3648 21.695 21.7032 22.6568 22.0614C25.3363 23.0627 29.883 24.3291 30.196 24.1627C30.7545 23.8665 30.5063 23.4858 29.4853 23.0796C28.4868 22.6819 24.3012 21.4663 22.3155 21.0009C21.0576 20.7048 19.2045 19.8135 19.2045 19.5004C19.2045 19.3622 19.3145 19.3142 19.5373 19.3594C19.7207 19.396 20.2707 19.5032 20.7586 19.5963C21.2522 19.6894 22.3719 20.0645 23.2773 20.4368C25.2122 21.235 27.6914 22.0812 29.9422 22.713C30.8448 22.9668 31.626 23.2037 31.6966 23.246C31.7671 23.2855 31.3863 23.6127 30.8363 23.9794L29.8519 24.6394L29.0481 24.3376ZM28.2922 25.7817C27.745 26.2048 27.6689 26.2273 27.6096 25.9904C27.5645 25.8071 27.2458 25.6435 26.5942 25.4686C24.2109 24.8283 19.6473 23.246 19.6473 23.0571C19.6473 22.9386 19.7037 22.8512 19.7799 22.8512C20.6542 22.8512 29.2145 25.0512 29.0086 25.2232C28.9522 25.2712 28.6335 25.5194 28.2922 25.7817ZM26.5294 26.9973C26.4448 26.9973 24.9358 26.5319 23.1758 25.965C20.3468 25.0512 19.6219 24.7183 19.8871 24.4504C19.983 24.3545 22.4481 24.9327 25.2489 25.7055L27.5137 26.3289L27.0991 26.6645C26.8791 26.8422 26.614 26.9973 26.5294 26.9973ZM24.2419 19.7148C22.6568 19.3058 20.5471 18.423 19.873 17.8871C19.5937 17.6642 19.605 17.6558 20.0648 17.746C20.3355 17.7996 21.0265 18.0591 21.6189 18.3299C22.2055 18.6007 23.4324 19.1055 24.3519 19.4553C25.2686 19.8078 26.0019 20.1068 25.9794 20.1209C25.9624 20.1407 25.1755 19.9545 24.2419 19.7148ZM24.3745 28.715C23.1758 29.6119 23.0094 29.6937 22.8796 29.4624C22.7978 29.3186 22.5919 29.1437 22.4142 29.0704C22.1999 28.9801 22.324 28.966 22.7978 29.0253C23.376 29.0986 23.5171 29.0676 23.5932 28.8617C23.7314 28.4894 23.4127 28.2524 22.0927 27.756C20.6232 27.2004 20.8037 27.1807 22.8345 27.6658C23.7089 27.8745 24.5183 28.0071 24.6424 27.9591C25.0063 27.8181 24.775 27.5219 24.0783 27.2399C23.723 27.096 23.596 27.0114 23.7963 27.0537C25.1304 27.3301 25.7227 27.4937 25.7227 27.584C25.7227 27.6545 25.1163 28.1594 24.3745 28.715ZM23.6045 17.2045C22.8486 16.9958 19.9237 15.5855 20.4653 15.6899C20.9391 15.783 24.2758 17.2299 24.1968 17.3117C24.1742 17.3342 23.9007 17.2863 23.6045 17.2045ZM23.0263 26.9522C22.905 26.9042 22.9389 26.8732 23.1166 26.8619C23.2632 26.8535 23.3563 26.8901 23.3083 26.9353C23.2604 26.986 23.1307 26.9917 23.0263 26.9522ZM21.3622 30.9573C20.7558 31.386 20.2227 31.7358 20.1776 31.7358C20.1324 31.7358 20.0958 31.6117 20.0958 31.4622C20.0958 31.2563 20.186 31.2055 20.4512 31.2535C20.8799 31.3324 21.2042 30.8614 21.0971 30.3142C21.0322 29.9786 21.066 29.9589 21.7458 29.9589C22.1463 29.9589 22.465 30.0068 22.465 30.0689C22.465 30.1309 21.9686 30.5314 21.3622 30.9573ZM20.5471 29.3666C20.4624 29.3666 20.3722 29.3073 20.3186 29.2199C20.2678 29.1353 20.3271 29.0704 20.4596 29.0704C20.5922 29.0704 20.6881 29.1324 20.6881 29.2199C20.6881 29.3073 20.6317 29.3666 20.5471 29.3666ZM19.2045 18.5555C19.1199 18.5555 19.0578 18.4878 19.0578 18.4004C19.0578 18.3101 19.1199 18.2819 19.2045 18.3327C19.2948 18.3863 19.354 18.4483 19.354 18.4878C19.354 18.5273 19.2948 18.5555 19.2045 18.5555ZM17.7773 21.6863C17.5545 21.5622 17.5489 21.5312 17.7407 21.5227C17.9917 21.5142 18.2145 21.6722 18.1073 21.7822C18.0763 21.816 17.924 21.7709 17.7773 21.6863ZM17.6504 20.6258C17.5319 20.6258 17.4276 20.5976 17.4276 20.5665C17.4276 20.5355 17.5319 20.4678 17.6504 20.4255C17.7689 20.3832 17.8732 20.4086 17.8732 20.4848C17.8732 20.5609 17.7689 20.6258 17.6504 20.6258ZM14.7481 22.7017C13.1178 22.0924 12.3224 21.6891 12.4663 21.5453C12.7117 21.2999 16.6858 23.0119 16.4601 23.263C16.4319 23.2968 15.6676 23.0458 14.7481 22.7017ZM15.7776 21.9091C15.4673 21.7737 15.3799 21.6891 15.5491 21.6807C15.8453 21.6666 16.4517 21.9458 16.3501 22.0501C16.3078 22.0896 16.0427 22.0248 15.7776 21.9091ZM13.6312 26.8422C13.4563 26.845 13.0248 26.6842 12.6694 26.4783C12.0489 26.1201 12.0404 26.1089 12.455 26.1089C12.6919 26.1089 13.2476 26.2217 13.6932 26.3599C14.3137 26.5545 14.4378 26.6363 14.2263 26.7237C14.0683 26.7858 13.8089 26.8365 13.6312 26.8422ZM13.4309 25.5137C12.8668 25.3642 11.654 24.7183 11.654 24.5689C11.654 24.535 11.8035 24.5435 11.9953 24.5886C12.3958 24.6789 14.1727 25.5673 14.0994 25.6378C14.0712 25.6576 13.7694 25.604 13.4309 25.5137ZM13.2081 24.1571C12.5848 23.9878 11.733 23.4576 11.8627 23.3222C11.9022 23.2827 12.3648 23.4717 12.8978 23.7509C13.4309 24.0301 13.8427 24.2671 13.823 24.284C13.8032 24.3009 13.5183 24.2417 13.2081 24.1571ZM12.7483 22.8737C12.4466 22.6989 12.5396 22.6509 12.9119 22.7891C13.0445 22.8399 13.1207 22.9104 13.0812 22.9527C13.0445 22.995 12.8978 22.9583 12.7483 22.8737Z" fill="#696992"/>
</svg>
