<svg width="44" height="44" viewBox="0 0 44 44" fill="none" xmlns="http://www.w3.org/2000/svg">
<path opacity="0.9" d="M8.16012 20.5524C8.50704 20.2027 11.1076 18.9927 15.6683 17.055C22.4376 14.1781 25.5627 12.9258 25.9773 12.9258C26.2001 12.9258 26.4822 13.0414 26.6147 13.1853C26.8319 13.4222 26.8206 13.6817 26.4878 16.2596C26.2876 17.8166 26.124 19.0858 26.124 19.1027C26.124 19.2042 29.2942 19.8135 31.294 20.0955C33.2345 20.3663 33.7647 20.4932 33.9368 20.716C34.1568 21.0094 34.1314 22.1827 33.8296 25.6181C33.7563 26.4614 33.7309 27.3386 33.776 27.5812C33.8493 27.9676 33.807 28.0296 33.4432 28.1227C33.2147 28.1791 31.9624 28.1171 30.6593 27.9817C26.7501 27.5783 25.2552 27.5163 25.1847 27.7532C25.1509 27.866 25.0099 29.0281 24.8773 30.3312C24.7052 32.0037 24.567 32.7653 24.4119 32.9232C24.2117 33.1235 24.1722 33.1235 24.0114 32.9148C23.9127 32.785 23.7293 32.706 23.5968 32.7342C23.3119 32.7907 21.1965 31.4114 19.3181 29.9391C16.1027 27.4232 14.0183 25.8917 11.4968 24.2022C10.0442 23.2263 8.63678 22.2278 8.38576 21.9937C7.84986 21.4945 7.76525 20.9473 8.16012 20.5524ZM9.71704 21.6355C10.2811 21.9909 10.4165 21.9514 10.3206 21.4578C10.2445 21.0573 9.85807 20.8937 9.48012 21.0996C9.1614 21.2745 9.16986 21.2886 9.71704 21.6355ZM11.3078 22.7017C11.3924 22.7017 11.4827 22.6424 11.5363 22.5522C11.587 22.4676 11.5278 22.4055 11.3952 22.4055C11.2627 22.4055 11.1668 22.4676 11.1668 22.5522C11.1668 22.6424 11.2232 22.7017 11.3078 22.7017ZM14.9519 24.3376C15.3947 24.1712 16.7063 23.796 17.8627 23.5083C21.6393 22.5635 24.646 21.5368 24.646 21.1899C24.646 21.1081 24.5501 21.0771 24.4317 21.1222C24.3132 21.1673 23.9663 21.2491 23.6532 21.3055C23.3429 21.3648 22.305 21.7032 21.3432 22.0614C18.6637 23.0627 14.117 24.3291 13.804 24.1627C13.2455 23.8665 13.4937 23.4858 14.5147 23.0796C15.5132 22.6819 19.6988 21.4663 21.6845 21.0009C22.9424 20.7048 24.7955 19.8135 24.7955 19.5004C24.7955 19.3622 24.6855 19.3142 24.4627 19.3594C24.2793 19.396 23.7293 19.5032 23.2414 19.5963C22.7478 19.6894 21.6281 20.0645 20.7227 20.4368C18.7878 21.235 16.3086 22.0812 14.0578 22.713C13.1552 22.9668 12.374 23.2037 12.3034 23.246C12.2329 23.2855 12.6137 23.6127 13.1637 23.9794L14.1481 24.6394L14.9519 24.3376ZM15.7078 25.7817C16.255 26.2048 16.3311 26.2273 16.3904 25.9904C16.4355 25.8071 16.7542 25.6435 17.4058 25.4686C19.7891 24.8283 24.3527 23.246 24.3527 23.0571C24.3527 22.9386 24.2963 22.8512 24.2201 22.8512C23.3458 22.8512 14.7855 25.0512 14.9914 25.2232C15.0478 25.2712 15.3665 25.5194 15.7078 25.7817ZM17.4706 26.9973C17.5552 26.9973 19.0642 26.5319 20.8242 25.965C23.6532 25.0512 24.3781 24.7183 24.1129 24.4504C24.017 24.3545 21.5519 24.9327 18.7511 25.7055L16.4863 26.3289L16.9009 26.6645C17.1209 26.8422 17.386 26.9973 17.4706 26.9973ZM19.7581 19.7148C21.3432 19.3058 23.4529 18.423 24.127 17.8871C24.4063 17.6642 24.395 17.6558 23.9352 17.746C23.6645 17.7996 22.9735 18.0591 22.3811 18.3299C21.7945 18.6007 20.5676 19.1055 19.6481 19.4553C18.7314 19.8078 17.9981 20.1068 18.0206 20.1209C18.0376 20.1407 18.8245 19.9545 19.7581 19.7148ZM19.6255 28.715C20.8242 29.6119 20.9906 29.6937 21.1204 29.4624C21.2022 29.3186 21.4081 29.1437 21.5858 29.0704C21.8001 28.9801 21.676 28.966 21.2022 29.0253C20.624 29.0986 20.4829 29.0676 20.4068 28.8617C20.2686 28.4894 20.5873 28.2524 21.9073 27.756C23.3768 27.2004 23.1963 27.1807 21.1655 27.6658C20.2911 27.8745 19.4817 28.0071 19.3576 27.9591C18.9937 27.8181 19.225 27.5219 19.9217 27.2399C20.277 27.096 20.404 27.0114 20.2037 27.0537C18.8696 27.3301 18.2773 27.4937 18.2773 27.584C18.2773 27.6545 18.8837 28.1594 19.6255 28.715ZM20.3955 17.2045C21.1514 16.9958 24.0763 15.5855 23.5347 15.6899C23.0609 15.783 19.7242 17.2299 19.8032 17.3117C19.8258 17.3342 20.0993 17.2863 20.3955 17.2045ZM20.9737 26.9522C21.095 26.9042 21.0611 26.8732 20.8834 26.8619C20.7368 26.8535 20.6437 26.8901 20.6917 26.9353C20.7396 26.986 20.8693 26.9917 20.9737 26.9522ZM22.6378 30.9573C23.2442 31.386 23.7773 31.7358 23.8224 31.7358C23.8676 31.7358 23.9042 31.6117 23.9042 31.4622C23.9042 31.2563 23.814 31.2055 23.5488 31.2535C23.1201 31.3324 22.7958 30.8614 22.9029 30.3142C22.9678 29.9786 22.934 29.9589 22.2542 29.9589C21.8537 29.9589 21.535 30.0068 21.535 30.0689C21.535 30.1309 22.0314 30.5314 22.6378 30.9573ZM23.4529 29.3666C23.5376 29.3666 23.6278 29.3073 23.6814 29.2199C23.7322 29.1353 23.6729 29.0704 23.5404 29.0704C23.4078 29.0704 23.3119 29.1324 23.3119 29.2199C23.3119 29.3073 23.3683 29.3666 23.4529 29.3666ZM24.7955 18.5555C24.8801 18.5555 24.9422 18.4878 24.9422 18.4004C24.9422 18.3101 24.8801 18.2819 24.7955 18.3327C24.7052 18.3863 24.646 18.4483 24.646 18.4878C24.646 18.5273 24.7052 18.5555 24.7955 18.5555ZM26.2227 21.6863C26.4455 21.5622 26.4511 21.5312 26.2593 21.5227C26.0083 21.5142 25.7855 21.6722 25.8927 21.7822C25.9237 21.816 26.076 21.7709 26.2227 21.6863ZM26.3496 20.6258C26.4681 20.6258 26.5724 20.5976 26.5724 20.5665C26.5724 20.5355 26.4681 20.4678 26.3496 20.4255C26.2311 20.3832 26.1268 20.4086 26.1268 20.4848C26.1268 20.5609 26.2311 20.6258 26.3496 20.6258ZM29.2519 22.7017C30.8822 22.0924 31.6776 21.6891 31.5337 21.5453C31.2883 21.2999 27.3142 23.0119 27.5399 23.263C27.5681 23.2968 28.3324 23.0458 29.2519 22.7017ZM28.2224 21.9091C28.5327 21.7737 28.6201 21.6891 28.4509 21.6807C28.1547 21.6666 27.5483 21.9458 27.6499 22.0501C27.6922 22.0896 27.9573 22.0248 28.2224 21.9091ZM30.3688 26.8422C30.5437 26.845 30.9752 26.6842 31.3306 26.4783C31.9511 26.1201 31.9596 26.1089 31.545 26.1089C31.3081 26.1089 30.7524 26.2217 30.3068 26.3599C29.6863 26.5545 29.5622 26.6363 29.7737 26.7237C29.9317 26.7858 30.1911 26.8365 30.3688 26.8422ZM30.5691 25.5137C31.1332 25.3642 32.346 24.7183 32.346 24.5689C32.346 24.535 32.1965 24.5435 32.0047 24.5886C31.6042 24.6789 29.8273 25.5673 29.9006 25.6378C29.9288 25.6576 30.2306 25.604 30.5691 25.5137ZM30.7919 24.1571C31.4152 23.9878 32.267 23.4576 32.1373 23.3222C32.0978 23.2827 31.6352 23.4717 31.1022 23.7509C30.5691 24.0301 30.1573 24.2671 30.177 24.284C30.1968 24.3009 30.4817 24.2417 30.7919 24.1571ZM31.2517 22.8737C31.5534 22.6989 31.4604 22.6509 31.0881 22.7891C30.9555 22.8399 30.8793 22.9104 30.9188 22.9527C30.9555 22.995 31.1022 22.9583 31.2517 22.8737Z" fill="#696992"/>
</svg>
